<?xml version="1.0"?>
<svg xmlns="http://www.w3.org/2000/svg" height="512px" viewBox="0 0 512 512" width="512px"><g><path d="m256 512c-68.378906 0-132.667969-26.628906-181.019531-74.980469-48.351563-48.351562-74.980469-112.640625-74.980469-181.019531s26.628906-132.667969 74.980469-181.019531c48.351562-48.351563 112.640625-74.980469 181.019531-74.980469s132.667969 26.628906 181.019531 74.980469c48.351563 48.351562 74.980469 112.640625 74.980469 181.019531s-26.628906 132.667969-74.980469 181.019531c-48.351562 48.351563-112.640625 74.980469-181.019531 74.980469zm0-472c-119.101562 0-216 96.898438-216 216s96.898438 216 216 216 216-96.898438 216-216-96.898438-216-216-216zm0 236c11.046875 0 20-8.953125 20-20s-8.953125-20-20-20-20 8.953125-20 20 8.953125 20 20 20zm0 76c-52.933594 0-96-43.066406-96-96s43.066406-96 96-96 96 43.066406 96 96-43.066406 96-96 96zm0-152c-30.878906 0-56 25.121094-56 56s25.121094 56 56 56 56-25.121094 56-56-25.121094-56-56-56zm0-80v-40c-97.046875 0-176 78.953125-176 176h40c0-74.988281 61.007812-136 136-136zm176 136h-40c0 74.988281-61.007812 136-136 136v40c97.046875 0 176-78.953125 176-176zm0 0" data-original="#000000" class="active-path" style="--darkreader-inline-" data-darkreader-inline-fill="" data-old_color="#000000" fill="#AFAFAF"/></g> </svg>
