<?xml version="1.0"?>
<svg xmlns="http://www.w3.org/2000/svg" id="Layer_1" enable-background="new 0 0 511.334 511.334" height="512px" viewBox="0 0 511.334 511.334" width="512px"><g><path d="m436.667 21c0-11.598-9.402-21-21-21h-394.667c-11.598 0-21 9.402-21 21v394.667c0 11.598 9.402 21 21 21s21-9.402 21-21v-373.667h373.667c11.598 0 21-9.402 21-21z" data-original="#000000" class="active-path" style="--darkreader-inline-" data-darkreader-inline-fill="" data-old_color="#000000" fill="#AFAFAF"/><path d="m490.333 74.667h-394.666c-11.598 0-21 9.402-21 21v394.667c0 11.598 9.402 21 21 21h394.667c11.598 0 21-9.402 21-21v-394.667c-.001-11.598-9.402-21-21.001-21zm-21 394.667h-352.666v-352.667h352.667v352.667z" data-original="#000000" class="active-path" style="--darkreader-inline-" data-darkreader-inline-fill="" data-old_color="#000000" fill="#AFAFAF"/><path d="m255.667 404.667c35.106 0 63.667-28.561 63.667-63.667 0-10.433 0-84.548 0-94.021l33.608 16.805c10.373 5.184 22.987.981 28.175-9.392 5.187-10.374.982-22.988-9.392-28.175l-64-32c-13.939-6.967-30.392 3.176-30.392 18.783v64.334h-21.667c-35.105 0-63.666 28.561-63.666 63.666 0 35.106 28.561 63.667 63.667 63.667zm0-85.333h21.667v21.666c0 11.947-9.72 21.667-21.667 21.667s-21.667-9.72-21.667-21.667c0-11.946 9.72-21.666 21.667-21.666z" data-original="#000000" class="active-path" style="--darkreader-inline-" data-darkreader-inline-fill="" data-old_color="#000000" fill="#AFAFAF"/></g> </svg>
