<?xml version="1.0"?>
<svg xmlns="http://www.w3.org/2000/svg" xmlns:xlink="http://www.w3.org/1999/xlink" version="1.1" id="Layer_1" x="0px" y="0px" viewBox="0 0 512.13 512.13" style="enable-background:new 0 0 512.13 512.13;" xml:space="preserve" width="512px" height="512px"><g><g>
	<g>
		<path d="M346.541,221.958l-121.198-87.091c-11.977-8.591-27.338-11.977-39.315-5.077c-11.977,5.077-18.746,18.747-18.746,34.107    v184.335c0,15.361,6.769,27.338,18.746,34.107c5.077,1.692,10.284,3.385,15.361,3.385c8.592,0,17.054-3.385,23.953-10.285    l121.198-87.092c11.977-8.591,18.746-20.439,18.746-34.107C365.286,242.397,358.518,230.42,346.541,221.958z M326.102,262.835    l-121.198,87.091c-1.692,0-3.385,1.692-3.385,1.692s0-1.692,0-3.385V163.899c0-1.692,0-3.385,0-3.385    c1.692,0,1.692,1.692,5.077,3.385l121.197,87.091c1.692,0,3.385,3.385,3.385,5.077S329.487,261.141,326.102,262.835z" data-original="#000000" class="active-path" data-old_color="#000000" style="--darkreader-inline-" data-darkreader-inline-fill="" fill="#FFFFFF"/>
	</g>
</g><g>
	<g>
		<path d="M256.065,0C114.43,0,0,114.298,0,256.065S114.298,512.13,256.065,512.13S512.13,397.832,512.13,256.065    S397.702,0,256.065,0z M256.065,477.892c-122.891,0-221.828-98.937-221.828-221.828S133.175,34.236,256.065,34.236    s221.828,98.937,221.828,221.828S378.956,477.892,256.065,477.892z" data-original="#000000" class="active-path" data-old_color="#000000" style="--darkreader-inline-" data-darkreader-inline-fill="" fill="#FFFFFF"/>
	</g>
</g></g> </svg>
