<?xml version="1.0"?>
<svg xmlns="http://www.w3.org/2000/svg" id="Capa_1" enable-background="new 0 0 512 512" height="512px" viewBox="0 0 512 512" width="512px"><g><g><path d="m458.001 166.035v-24.919h-30v24.919h-283.47l337.161-138.278-11.382-27.757-404.841 166.035h-65.469v345.965h512v-345.965zm23.999 315.965h-452v-285.965h452z" data-original="#000000" class="active-path" style="--darkreader-inline-" data-darkreader-inline-fill="" data-old_color="#000000" fill="#AFAFAF"/><path d="m453 225.672h-394v96.895h394zm-364 30h27v36.895h-27zm334 36.895h-277v-36.895h277z" data-original="#000000" class="active-path" style="--darkreader-inline-" data-darkreader-inline-fill="" data-old_color="#000000" fill="#AFAFAF"/><path d="m212.27 364.689h30v76.054h-30z" data-original="#000000" class="active-path" style="--darkreader-inline-" data-darkreader-inline-fill="" data-old_color="#000000" fill="#AFAFAF"/><path d="m269.73 364.689h30v76.054h-30z" data-original="#000000" class="active-path" style="--darkreader-inline-" data-darkreader-inline-fill="" data-old_color="#000000" fill="#AFAFAF"/><path d="m107.213 456.116c29.342 0 53.213-23.872 53.213-53.213s-23.871-53.213-53.213-53.213-53.214 23.872-53.214 53.213 23.872 53.213 53.214 53.213zm0-76.427c12.8 0 23.213 10.414 23.213 23.213s-10.413 23.213-23.213 23.213-23.214-10.414-23.214-23.213 10.414-23.213 23.214-23.213z" data-original="#000000" class="active-path" style="--darkreader-inline-" data-darkreader-inline-fill="" data-old_color="#000000" fill="#AFAFAF"/><path d="m404.787 349.689c-29.342 0-53.213 23.872-53.213 53.213s23.871 53.213 53.213 53.213 53.214-23.872 53.214-53.213-23.872-53.213-53.214-53.213zm0 76.427c-12.8 0-23.213-10.414-23.213-23.213s10.413-23.213 23.213-23.213 23.214 10.414 23.214 23.213-10.414 23.213-23.214 23.213z" data-original="#000000" class="active-path" style="--darkreader-inline-" data-darkreader-inline-fill="" data-old_color="#000000" fill="#AFAFAF"/></g></g> </svg>
